<svg width="18" height="18" viewBox="0 0 18 18" fill="none" xmlns="http://www.w3.org/2000/svg">
<path d="M9.05322 17.3423C6.69222 17.3423 4.6853 16.5158 3.03247 14.863C1.3798 13.2103 0.553467 11.2034 0.553467 8.84226C0.553467 6.57943 1.32105 4.63876 2.85622 3.02026C4.39138 1.40159 6.27113 0.524925 8.49547 0.390259C8.63913 0.390259 8.78022 0.395425 8.91872 0.405759C9.05705 0.416092 9.19288 0.43151 9.32622 0.45201C8.81605 0.928843 8.40972 1.50509 8.10722 2.18076C7.80455 2.85643 7.65322 3.57693 7.65322 4.34226C7.65322 5.98109 8.22688 7.37418 9.37422 8.52151C10.5214 9.66868 11.9144 10.2423 13.5532 10.2423C14.3289 10.2423 15.052 10.091 15.7225 9.78851C16.393 9.48584 16.9635 9.07943 17.434 8.56926C17.4545 8.70259 17.4699 8.83851 17.4802 8.97701C17.4904 9.11534 17.4955 9.25634 17.4955 9.40001C17.3673 11.6243 16.494 13.5041 14.8755 15.0393C13.2568 16.5746 11.3161 17.3423 9.05322 17.3423ZM9.05322 15.8423C10.5199 15.8423 11.8366 15.4381 13.0032 14.6298C14.1699 13.8214 15.0199 12.7673 15.5532 11.4673C15.2199 11.5506 14.8865 11.6173 14.5532 11.6673C14.2199 11.7173 13.8865 11.7423 13.5532 11.7423C11.5032 11.7423 9.75738 11.0214 8.31572 9.57976C6.87405 8.13809 6.15322 6.39226 6.15322 4.34226C6.15322 4.00893 6.17822 3.67559 6.22822 3.34226C6.27822 3.00893 6.34488 2.67559 6.42822 2.34226C5.12822 2.87559 4.07405 3.72559 3.26572 4.89226C2.45738 6.05893 2.05322 7.37559 2.05322 8.84226C2.05322 10.7756 2.73655 12.4256 4.10322 13.7923C5.46988 15.1589 7.11988 15.8423 9.05322 15.8423Z" fill="#D7D7D7"/>
</svg>
