<svg width="157" height="50" viewBox="0 0 157 50" fill="none" xmlns="http://www.w3.org/2000/svg">
<path d="M13.1229 26.2572V30.5465H18.8829V33.2672H13.1229V37.8017H19.6182V40.5959H9.69141V23.4629H19.6182V26.2572H13.1229ZM21.8542 33.7574C21.8542 32.3848 22.1239 31.1675 22.6631 30.1053C23.2187 29.0432 23.9622 28.2262 24.8936 27.6543C25.8413 27.0823 26.8953 26.7964 28.0554 26.7964C29.0685 26.7964 29.9509 27.0006 30.7026 27.4092C31.4706 27.8177 32.0834 28.3324 32.5409 28.9533V27.017H35.9969V40.5959H32.5409V38.6105C32.0997 39.2478 31.4869 39.7789 30.7026 40.2037C29.9346 40.6122 29.044 40.8165 28.0309 40.8165C26.8871 40.8165 25.8413 40.5223 24.8936 39.9341C23.9622 39.3458 23.2187 38.5206 22.6631 37.4585C22.1239 36.38 21.8542 35.1463 21.8542 33.7574ZM32.5409 33.8064C32.5409 32.9731 32.3775 32.2623 32.0507 31.674C31.7239 31.0694 31.2827 30.6119 30.7271 30.3014C30.1715 29.9746 29.5751 29.8112 28.9378 29.8112C28.3005 29.8112 27.7123 29.9664 27.1731 30.2769C26.6338 30.5874 26.1926 31.0449 25.8495 31.6495C25.5227 32.2378 25.3593 32.9404 25.3593 33.7574C25.3593 34.5744 25.5227 35.2934 25.8495 35.9143C26.1926 36.5189 26.6338 36.9846 27.1731 37.3115C27.7286 37.6383 28.3169 37.8017 28.9378 37.8017C29.5751 37.8017 30.1715 37.6464 30.7271 37.336C31.2827 37.0092 31.7239 36.5516 32.0507 35.9634C32.3775 35.3588 32.5409 34.6398 32.5409 33.8064ZM44.5446 40.8165C43.4334 40.8165 42.4366 40.6204 41.5543 40.2282C40.6719 39.8197 39.9692 39.2723 39.4464 38.586C38.9398 37.8997 38.662 37.1399 38.613 36.3065H42.069C42.1343 36.8294 42.3876 37.2624 42.8288 37.6056C43.2864 37.9487 43.8501 38.1203 44.5201 38.1203C45.1737 38.1203 45.6802 37.9896 46.0397 37.7281C46.4155 37.4667 46.6035 37.1317 46.6035 36.7232C46.6035 36.282 46.3747 35.9552 45.9172 35.7428C45.476 35.514 44.7652 35.2689 43.7847 35.0075C42.7716 34.7623 41.9383 34.5091 41.2846 34.2476C40.6474 33.9862 40.0918 33.5858 39.6179 33.0466C39.1604 32.5074 38.9316 31.7802 38.9316 30.8652C38.9316 30.1135 39.1441 29.4272 39.5689 28.8063C40.0101 28.1853 40.631 27.6951 41.4317 27.3356C42.2487 26.9761 43.2047 26.7964 44.2995 26.7964C45.9172 26.7964 47.2081 27.2049 48.1721 28.0219C49.1362 28.8226 49.6673 29.9092 49.7653 31.2818H46.4809C46.4319 30.7426 46.2031 30.3178 45.7946 30.0073C45.4024 29.6805 44.8714 29.5171 44.2014 29.5171C43.5805 29.5171 43.0984 29.6315 42.7553 29.8602C42.4285 30.089 42.2651 30.4076 42.2651 30.8161C42.2651 31.2737 42.4938 31.625 42.9514 31.8701C43.4089 32.0989 44.1197 32.3358 45.0838 32.5809C46.0642 32.826 46.8731 33.0793 47.5104 33.3407C48.1476 33.6022 48.695 34.0107 49.1526 34.5663C49.6264 35.1055 49.8715 35.8245 49.8879 36.7232C49.8879 37.5075 49.6673 38.2102 49.2261 38.8311C48.8012 39.452 48.1803 39.9423 47.3633 40.3018C46.5626 40.6449 45.623 40.8165 44.5446 40.8165ZM65.6952 27.017L57.2882 47.0177H53.6361L56.5774 40.2527L51.136 27.017H54.9842L58.4892 36.5026L62.0431 27.017H65.6952ZM73.2562 23.561C75.07 23.561 76.655 23.9123 78.0112 24.6149C79.3838 25.3012 80.4378 26.298 81.1731 27.6052C81.9248 28.8961 82.3006 30.4076 82.3006 32.1397C82.3006 33.8718 81.9248 35.3751 81.1731 36.6497C80.4378 37.9242 79.3838 38.9046 78.0112 39.5909C76.655 40.2609 75.07 40.5959 73.2562 40.5959H67.6923V23.561H73.2562ZM73.2562 38.3164C75.2497 38.3164 76.7775 37.7772 77.8397 36.6987C78.9018 35.6202 79.4329 34.1006 79.4329 32.1397C79.4329 30.1625 78.9018 28.6183 77.8397 27.5072C76.7775 26.3961 75.2497 25.8405 73.2562 25.8405H70.4865V38.3164H73.2562ZM84.1384 33.7819C84.1384 32.4257 84.4162 31.2246 84.9717 30.1789C85.5437 29.1331 86.3117 28.3242 87.2757 27.7523C88.2562 27.1641 89.3346 26.8699 90.5112 26.8699C91.5733 26.8699 92.4965 27.0823 93.2809 27.5072C94.0815 27.9157 94.7188 28.4304 95.1927 29.0514V27.0905H98.0114V40.5959H95.1927V38.586C94.7188 39.2233 94.0734 39.7543 93.2563 40.1792C92.4393 40.604 91.5079 40.8165 90.4621 40.8165C89.302 40.8165 88.2398 40.5223 87.2757 39.9341C86.3117 39.3295 85.5437 38.4961 84.9717 37.434C84.4162 36.3555 84.1384 35.1382 84.1384 33.7819ZM95.1927 33.8309C95.1927 32.8995 94.9966 32.0907 94.6044 31.4044C94.2286 30.7181 93.7302 30.1952 93.1093 29.8357C92.4883 29.4762 91.8184 29.2965 91.0994 29.2965C90.3804 29.2965 89.7105 29.4762 89.0895 29.8357C88.4686 30.1789 87.9621 30.6936 87.5699 31.3799C87.194 32.0498 87.0061 32.8505 87.0061 33.7819C87.0061 34.7133 87.194 35.5303 87.5699 36.233C87.9621 36.9356 88.4686 37.4749 89.0895 37.8507C89.7268 38.2102 90.3968 38.3899 91.0994 38.3899C91.8184 38.3899 92.4883 38.2102 93.1093 37.8507C93.7302 37.4912 94.2286 36.9683 94.6044 36.282C94.9966 35.5794 95.1927 34.7623 95.1927 33.8309ZM106.583 40.8165C105.521 40.8165 104.565 40.6286 103.716 40.2527C102.882 39.8606 102.221 39.3377 101.73 38.6841C101.24 38.0141 100.979 37.2706 100.946 36.4536H103.838C103.887 37.0255 104.157 37.5075 104.647 37.8997C105.154 38.2755 105.783 38.4635 106.534 38.4635C107.319 38.4635 107.923 38.3164 108.348 38.0223C108.789 37.7118 109.01 37.3196 109.01 36.8458C109.01 36.3392 108.765 35.9634 108.275 35.7183C107.801 35.4732 107.041 35.2035 105.995 34.9094C104.982 34.6316 104.157 34.362 103.52 34.1006C102.882 33.8391 102.327 33.4388 101.853 32.8995C101.395 32.3603 101.167 31.6495 101.167 30.7671C101.167 30.0481 101.379 29.3945 101.804 28.8063C102.229 28.2017 102.833 27.7278 103.618 27.3846C104.418 27.0415 105.333 26.8699 106.363 26.8699C107.899 26.8699 109.133 27.2621 110.064 28.0464C111.012 28.8144 111.518 29.8684 111.584 31.2083H108.789C108.74 30.6037 108.495 30.1217 108.054 29.7622C107.613 29.4027 107.017 29.2229 106.265 29.2229C105.53 29.2229 104.966 29.3618 104.574 29.6396C104.181 29.9174 103.985 30.2851 103.985 30.7426C103.985 31.1021 104.116 31.4044 104.378 31.6495C104.639 31.8946 104.958 32.0907 105.333 32.2378C105.709 32.3685 106.265 32.5401 107 32.7525C107.981 33.0139 108.781 33.2835 109.402 33.5613C110.039 33.8228 110.587 34.2149 111.044 34.7378C111.502 35.2607 111.739 35.9552 111.755 36.8212C111.755 37.5892 111.543 38.2755 111.118 38.8801C110.693 39.4847 110.089 39.9586 109.304 40.3018C108.536 40.6449 107.629 40.8165 106.583 40.8165ZM121.76 26.8699C122.79 26.8699 123.705 27.0905 124.505 27.5317C125.322 27.9729 125.96 28.6265 126.417 29.4926C126.891 30.3586 127.128 31.4044 127.128 32.6299V40.5959H124.358V33.0466C124.358 31.8374 124.056 30.9142 123.451 30.2769C122.847 29.6233 122.022 29.2965 120.976 29.2965C119.93 29.2965 119.097 29.6233 118.476 30.2769C117.871 30.9142 117.569 31.8374 117.569 33.0466V40.5959H114.775V22.458H117.569V28.6592C118.043 28.0873 118.639 27.6461 119.358 27.3356C120.093 27.0252 120.894 26.8699 121.76 26.8699Z" fill="#0E73BB"/>
<path d="M148.112 25.2763C148.521 25.9735 148.788 26.7445 148.897 27.5452C149.007 28.3459 148.957 29.1603 148.75 29.9416C148.544 30.7229 148.185 31.4555 147.693 32.0975C147.203 32.7394 146.589 33.2779 145.89 33.682C145.19 34.0861 144.417 34.3477 143.616 34.4518C142.814 34.556 142 34.5007 141.22 34.2889C140.44 34.0772 139.71 33.7133 139.072 33.2181C138.433 32.723 137.898 32.1065 137.499 31.4039M148.112 25.2763C147.293 23.8804 145.957 22.8648 144.392 22.4512C142.827 22.0376 141.163 22.2596 139.762 23.0686C138.36 23.8778 137.336 25.2082 136.912 26.7698C136.488 28.3314 136.699 29.9973 137.499 31.4039M148.112 25.2763L137.499 31.4039M137.746 17.6606L142.939 14.5917C144.851 13.4622 147.296 14.1321 148.4 16.0899C148.822 16.839 149.002 17.7003 148.915 18.5556C148.828 19.4109 148.479 20.2185 147.915 20.8674M137.746 17.6606L132.553 20.7296C130.641 21.8591 129.985 24.3612 131.089 26.318C131.398 26.873 131.834 27.3462 132.363 27.6981C132.891 28.0501 133.497 28.2705 134.128 28.3411M137.746 17.6606L139.234 20.1709" stroke="#06CF3F" stroke-width="1.53191" stroke-linecap="round" stroke-linejoin="round"/>
</svg>
