<svg width="18" height="20" viewBox="0 0 18 20" fill="none" xmlns="http://www.w3.org/2000/svg">
<path d="M7.51728 19.1L6.98653 16.4038C6.55203 16.2474 6.1107 16.0469 5.66253 15.802C5.21453 15.557 4.81294 15.2756 4.45778 14.9578L1.86153 15.825L0.379028 13.25L2.41928 11.4558C2.37961 11.2238 2.34661 10.9869 2.32028 10.7453C2.29394 10.5036 2.28078 10.2584 2.28078 10.0095C2.28078 9.76736 2.29394 9.52703 2.32028 9.28853C2.34661 9.05002 2.37961 8.80194 2.41928 8.54428L0.379028 6.75002L1.86153 4.19428L4.44803 5.05203C4.82253 4.72769 5.22578 4.44469 5.65778 4.20302C6.08978 3.96136 6.52953 3.75911 6.97703 3.59627L7.51728 0.900024H10.4828L11.0135 3.60577C11.4802 3.78144 11.9183 3.98369 12.3278 4.21252C12.7374 4.44136 13.1327 4.72119 13.5135 5.05203L16.1385 4.19428L17.621 6.75002L15.5423 8.57302C15.5948 8.81786 15.631 9.05636 15.651 9.28853C15.6709 9.52052 15.6808 9.75769 15.6808 10C15.6808 10.2359 15.6692 10.4699 15.646 10.702C15.623 10.934 15.5917 11.1821 15.552 11.4463L17.6115 13.25L16.1288 15.825L13.5135 14.948C13.1327 15.2789 12.7343 15.5619 12.3183 15.797C11.9023 16.0324 11.4674 16.2314 11.0135 16.3943L10.4828 19.1H7.51728ZM8.55003 17.8H9.44053L9.92503 15.2963C10.552 15.1796 11.1309 14.9694 11.6615 14.6655C12.1924 14.3615 12.6706 13.9583 13.0963 13.4558L15.5058 14.275L15.9655 13.525L14.0463 11.8405C14.1463 11.5315 14.2238 11.2276 14.2788 10.9288C14.3339 10.6301 14.3615 10.3205 14.3615 10C14.3615 9.67303 14.3339 9.36344 14.2788 9.07127C14.2238 8.77894 14.1463 8.48144 14.0463 8.17878L15.9845 6.47502L15.525 5.72502L13.0865 6.53452C12.7185 6.07686 12.2468 5.68169 11.6713 5.34903C11.0956 5.01636 10.5104 4.80128 9.91553 4.70378L9.45003 2.20002H8.54053L8.08453 4.69428C7.4577 4.79811 6.87411 5.00352 6.33378 5.31052C5.79328 5.61769 5.3102 6.02569 4.88453 6.53452L2.47503 5.72502L2.01553 6.47502L3.92503 8.15952C3.82503 8.43019 3.74586 8.72286 3.68753 9.03753C3.6292 9.35219 3.60003 9.67619 3.60003 10.0095C3.60003 10.3365 3.6292 10.6542 3.68753 10.9625C3.74586 11.2709 3.82186 11.5635 3.91553 11.8405L2.01553 13.525L2.47503 14.275L4.87503 13.475C5.28786 13.9647 5.76445 14.3631 6.30478 14.6703C6.84528 14.9773 7.43536 15.1891 8.07503 15.3058L8.55003 17.8ZM8.96153 13.1C9.82686 13.1 10.5599 12.7997 11.1605 12.199C11.7612 11.5984 12.0615 10.8654 12.0615 10C12.0615 9.13469 11.7612 8.40169 11.1605 7.80102C10.5599 7.20036 9.82686 6.90002 8.96153 6.90002C8.10253 6.90002 7.37111 7.20036 6.76728 7.80102C6.16344 8.40169 5.86153 9.13469 5.86153 10C5.86153 10.8654 6.16344 11.5984 6.76728 12.199C7.37111 12.7997 8.10253 13.1 8.96153 13.1Z" fill="#D7D7D7"/>
</svg>
