<svg width="20" height="20" viewBox="0 0 20 20" fill="none" xmlns="http://www.w3.org/2000/svg">
<mask id="mask0_1_1593" style="mask-type:alpha" maskUnits="userSpaceOnUse" x="0" y="0" width="20" height="20">
<rect width="20" height="20" fill="#D9D9D9"/>
</mask>
<g mask="url(#mask0_1_1593)">
<path d="M11.819 5.72132V4.47153H18.069V5.72132H11.819ZM11.819 8.95861V7.70861H18.069V8.95861H11.819ZM11.819 12.1957V10.9459H18.069V12.1957H11.819ZM6.61255 11.5067C6.00769 11.5067 5.4929 11.295 5.06817 10.8715C4.64345 10.4481 4.43109 9.93389 4.43109 9.32903C4.43109 8.72417 4.64283 8.20944 5.0663 7.78486C5.48977 7.36014 6.00394 7.14778 6.6088 7.14778C7.21366 7.14778 7.72845 7.35944 8.15318 7.78278C8.57776 8.20625 8.79005 8.72042 8.79005 9.32528C8.79005 9.93014 8.57838 10.4449 8.15505 10.8697C7.73158 11.2944 7.21741 11.5067 6.61255 11.5067ZM1.93109 16.1861V14.9234C1.93109 14.6869 1.98852 14.4616 2.10338 14.2476C2.21824 14.0335 2.37665 13.8635 2.57859 13.7376C3.1822 13.3838 3.81922 13.1159 4.48963 12.9338C5.16019 12.7516 5.8672 12.6605 6.61067 12.6605C7.35415 12.6605 8.06109 12.7516 8.73151 12.9338C9.40192 13.1159 10.039 13.3838 10.6428 13.7376C10.8446 13.8635 11.0029 14.0335 11.1178 14.2476C11.2326 14.4616 11.2901 14.6869 11.2901 14.9234V16.1861H1.93109ZM3.25797 14.808V14.9361H9.96317V14.808C9.44498 14.5141 8.90304 14.291 8.33734 14.1388C7.77165 13.9866 7.19609 13.9105 6.61067 13.9105C6.02512 13.9105 5.44949 13.9866 4.8838 14.1388C4.31811 14.291 3.77616 14.5141 3.25797 14.808ZM6.61067 10.2567C6.86818 10.2567 7.08741 10.1662 7.26838 9.98507C7.44949 9.80396 7.54005 9.58465 7.54005 9.32715C7.54005 9.06965 7.44949 8.85042 7.26838 8.66944C7.08741 8.48833 6.86818 8.39778 6.61067 8.39778C6.35317 8.39778 6.13387 8.48833 5.95276 8.66944C5.77165 8.85042 5.68109 9.06965 5.68109 9.32715C5.68109 9.58465 5.77165 9.80396 5.95276 9.98507C6.13387 10.1662 6.35317 10.2567 6.61067 10.2567Z" fill="#D7D7D7"/>
</g>
</svg>
