<svg width="20" height="20" viewBox="0 0 20 20" fill="none" xmlns="http://www.w3.org/2000/svg">
<path d="M7.09188 19.5002C6.91622 19.5002 6.76338 19.4521 6.63338 19.3559C6.50322 19.2598 6.41122 19.129 6.35738 18.9637L3.84588 10.7502H0.499634V9.25018H4.40338C4.56888 9.25018 4.71663 9.29668 4.84663 9.38968C4.9768 9.48252 5.0688 9.61168 5.12263 9.77718L6.97463 15.7964L10.2459 1.10793C10.2831 0.932266 10.3692 0.7871 10.5044 0.672433C10.6397 0.5576 10.7952 0.500183 10.9709 0.500183C11.1464 0.500183 11.3018 0.555017 11.4371 0.664684C11.5723 0.77435 11.6586 0.916933 11.6959 1.09243L14.0054 11.0214L15.6074 5.89243C15.6612 5.7271 15.7532 5.59635 15.8834 5.50018C16.0134 5.40402 16.1611 5.35593 16.3266 5.35593C16.492 5.35593 16.6355 5.39985 16.7574 5.48768C16.879 5.57552 16.972 5.69702 17.0361 5.85218L18.3149 9.25018H19.4899V10.7502H17.7784C17.6131 10.7502 17.4695 10.7063 17.3476 10.6184C17.226 10.5306 17.1331 10.4123 17.0689 10.2637L16.3824 8.41168L14.6034 14.1079C14.5496 14.2733 14.4566 14.4066 14.3246 14.5079C14.1926 14.6091 14.0388 14.6546 13.8631 14.6444C13.6875 14.6341 13.5356 14.5742 13.4074 14.4647C13.2792 14.355 13.1966 14.2175 13.1594 14.0522L10.9709 4.64043L7.81113 18.9079C7.76763 19.0834 7.6808 19.2234 7.55063 19.3279C7.42047 19.4324 7.26755 19.4898 7.09188 19.5002Z" fill="#D7D7D7"/>
</svg>
