<svg width="16" height="16" viewBox="0 0 16 16" fill="none" xmlns="http://www.w3.org/2000/svg">
<path d="M14.525 15.3268L12.125 12.9268V14.8624H11V10.9999H14.8625V12.1249H12.9082L15.3082 14.5249L14.525 15.3268ZM8.00003 15.1249C7.0144 15.1249 6.08815 14.9379 5.22127 14.5639C4.3544 14.1899 3.60034 13.6823 2.95909 13.0412C2.31784 12.4001 1.81021 11.6462 1.43621 10.7794C1.06209 9.91266 0.875025 8.9866 0.875025 8.00122C0.875025 7.01572 1.06202 6.08941 1.43602 5.22228C1.81002 4.35516 2.31759 3.60091 2.95871 2.95953C3.59984 2.31816 4.35378 1.81035 5.22053 1.4361C6.08728 1.06197 7.01334 0.874908 7.99871 0.874908C8.98421 0.874908 9.91053 1.06197 10.7777 1.4361C11.6448 1.8101 12.399 2.31772 13.0404 2.95897C13.6818 3.60022 14.1896 4.35428 14.5638 5.22116C14.938 6.08803 15.125 7.01428 15.125 7.99991C15.125 8.22591 15.1143 8.45185 15.093 8.67772C15.0716 8.90372 15.0395 9.12972 14.9966 9.35572H13.8414C13.8943 9.12972 13.9339 8.90372 13.9603 8.67772C13.9868 8.45185 14 8.22591 14 7.99991C14 7.72741 13.982 7.45497 13.946 7.1826C13.9099 6.9101 13.8534 6.63928 13.7765 6.37016H10.9884C11.0355 6.63928 11.0697 6.9101 11.091 7.1826C11.1121 7.45497 11.1227 7.72741 11.1227 7.99991C11.1227 8.22591 11.1151 8.45185 11.1 8.67772C11.0847 8.90372 11.062 9.12972 11.0317 9.35572H9.90671C9.93709 9.12972 9.95984 8.90372 9.97496 8.67772C9.99009 8.45185 9.99765 8.22591 9.99765 7.99991C9.99765 7.72741 9.98709 7.45497 9.96596 7.1826C9.94471 6.9101 9.91059 6.63928 9.86359 6.37016H6.13646C6.08946 6.63928 6.05534 6.91028 6.03409 7.18316C6.01296 7.45603 6.0024 7.72891 6.0024 8.00178C6.0024 8.27453 6.01296 8.54672 6.03409 8.81835C6.05534 9.0901 6.08946 9.36053 6.13646 9.62966H8.89421V10.7547H6.39465C6.5609 11.3447 6.77553 11.9107 7.03853 12.4528C7.30165 12.9948 7.62215 13.5052 8.00003 13.984C8.22603 13.984 8.45196 13.9708 8.67784 13.9444C8.90384 13.9179 9.12984 13.8922 9.35584 13.8672V15.0081C9.12984 15.0331 8.90384 15.0588 8.67784 15.0852C8.45196 15.1117 8.22603 15.1249 8.00003 15.1249ZM2.22352 9.62966H5.01165C4.96453 9.36053 4.93034 9.08953 4.90909 8.81666C4.88796 8.54378 4.8774 8.27091 4.8774 7.99803C4.8774 7.72528 4.88796 7.4531 4.90909 7.18147C4.93034 6.90972 4.96453 6.63928 5.01165 6.37016H2.22352C2.14665 6.63928 2.09015 6.91028 2.05403 7.18316C2.01803 7.45603 2.00002 7.72891 2.00002 8.00178C2.00002 8.27453 2.01803 8.54672 2.05403 8.81835C2.09015 9.0901 2.14665 9.36053 2.22352 9.62966ZM2.69527 5.24516H5.23609C5.36521 4.70091 5.53702 4.17447 5.75152 3.66585C5.9659 3.1571 6.23128 2.67103 6.54765 2.20766C5.70628 2.39416 4.95171 2.75278 4.28396 3.28353C3.61609 3.81428 3.08652 4.46816 2.69527 5.24516ZM6.54765 13.7922C6.24578 13.3239 5.9864 12.8355 5.76953 12.3268C5.55265 11.8182 5.37596 11.2942 5.23946 10.7547H2.69527C3.08652 11.5268 3.61728 12.1782 4.28753 12.709C4.95778 13.2398 5.71115 13.6009 6.54765 13.7922ZM6.39465 5.24516H9.6054C9.44578 4.65478 9.23077 4.09122 8.9604 3.55447C8.69002 3.01785 8.3699 2.50497 8.00003 2.01585C7.6269 2.4946 7.30596 3.00491 7.03721 3.54678C6.76846 4.08866 6.55428 4.65478 6.39465 5.24516ZM10.7606 5.24516H13.3048C12.9135 4.46816 12.384 3.8131 11.7161 3.27997C11.0483 2.74672 10.2938 2.38928 9.4524 2.20766C9.75428 2.67591 10.01 3.16553 10.2197 3.67653C10.4293 4.18766 10.6096 4.71053 10.7606 5.24516Z" fill="#D7D7D7"/>
</svg>
